<svg width="32" height="32" viewBox="0 0 32 32" fill="none" xmlns="http://www.w3.org/2000/svg">
  <defs>
    <linearGradient id="shieldGradient" x1="0%" y1="0%" x2="100%" y2="100%">
      <stop offset="0%" style="stop-color:#1976D2;stop-opacity:1" />
      <stop offset="100%" style="stop-color:#1565C0;stop-opacity:1" />
    </linearGradient>
    <filter id="dropShadow" x="-20%" y="-20%" width="140%" height="140%">
      <feDropShadow dx="0" dy="2" stdDeviation="2" flood-color="#000000" flood-opacity="0.2"/>
    </filter>
  </defs>
  
  <!-- Shield Background -->
  <path d="M16 2L26 6V16C26 23.5 21.5 29.5 16 30C10.5 29.5 6 23.5 6 16V6L16 2Z" 
        fill="url(#shieldGradient)" 
        filter="url(#dropShadow)"/>
  
  <!-- Shield Border -->
  <path d="M16 2L26 6V16C26 23.5 21.5 29.5 16 30C10.5 29.5 6 23.5 6 16V6L16 2Z" 
        fill="none" 
        stroke="#0D47A1" 
        stroke-width="1" 
        opacity="0.5"/>
  
  <!-- Emergency Cross -->
  <g transform="translate(16, 16)">
    <!-- Vertical bar -->
    <rect x="-1.5" y="-8" width="3" height="16" fill="white" rx="1.5"/>
    <!-- Horizontal bar -->
    <rect x="-8" y="-1.5" width="16" height="3" fill="white" rx="1.5"/>
    <!-- Center circle -->
    <circle cx="0" cy="0" r="3" fill="white"/>
    <circle cx="0" cy="0" r="2" fill="#1976D2"/>
  </g>
  
  <!-- Emergency indicator dots -->
  <circle cx="22" cy="10" r="1.5" fill="#FF5722" opacity="0.8">
    <animate attributeName="opacity" values="0.8;1;0.8" dur="2s" repeatCount="indefinite"/>
  </circle>
  <circle cx="10" cy="22" r="1" fill="#FF5722" opacity="0.6">
    <animate attributeName="opacity" values="0.6;1;0.6" dur="2s" begin="0.5s" repeatCount="indefinite"/>
  </circle>
  
  <!-- Pulse effect -->
  <circle cx="16" cy="16" r="12" fill="none" stroke="#1976D2" stroke-width="1" opacity="0.3">
    <animate attributeName="r" values="10;14;10" dur="3s" repeatCount="indefinite"/>
    <animate attributeName="opacity" values="0.3;0;0.3" dur="3s" repeatCount="indefinite"/>
  </circle>
</svg>
